<?xml version="1.0" encoding="UTF-8" standalone="no"?>
<!-- Created with Inkscape (http://www.inkscape.org/) -->

<svg
   width="50"
   height="50"
   viewBox="0 0 13.229166 13.229166"
   version="1.1"
   id="svg1"
   inkscape:export-filename="Documentation\DocFx\resources\logo.svg"
   inkscape:export-xdpi="12.288"
   inkscape:export-ydpi="12.288"
   inkscape:version="1.3.2 (091e20ef0f, 2023-11-25)"
   sodipodi:docname="logo.svg"
   xmlns:inkscape="http://www.inkscape.org/namespaces/inkscape"
   xmlns:sodipodi="http://sodipodi.sourceforge.net/DTD/sodipodi-0.dtd"
   xmlns="http://www.w3.org/2000/svg"
   xmlns:svg="http://www.w3.org/2000/svg">
  <sodipodi:namedview
     id="namedview1"
     pagecolor="#ffffff"
     bordercolor="#eeeeee"
     borderopacity="1"
     inkscape:showpageshadow="0"
     inkscape:pageopacity="0"
     inkscape:pagecheckerboard="0"
     inkscape:deskcolor="#505050"
     inkscape:document-units="mm"
     inkscape:export-bgcolor="#ffffff00"
     inkscape:zoom="0.5"
     inkscape:cx="57"
     inkscape:cy="577"
     inkscape:window-width="1920"
     inkscape:window-height="1017"
     inkscape:window-x="-8"
     inkscape:window-y="-8"
     inkscape:window-maximized="1"
     inkscape:current-layer="layer4"
     showguides="false" />
  <defs
     id="defs1" />
  <g
     inkscape:groupmode="layer"
     id="layer5"
     inkscape:label="Stuff">
    <rect
       style="display:none;fill:#000000;fill-opacity:1;stroke:none;stroke-width:1.02741;stroke-dasharray:none;stroke-opacity:1"
       id="rect21"
       width="13.229167"
       height="13.229167"
       x="2.8421709e-14"
       y="-3.5527137e-15" />
    <g
       id="path1-8-7"
       inkscape:label="Cloud">
      <path
         id="path16"
         style="color:#000000;fill:#ffffff;fill-opacity:1;stroke-width:0.05;-inkscape-stroke:none"
         d="M 1.5874999,1.5874999 V 4.2497146 C 2.1381884,3.0829008 3.0829009,2.1381883 4.2497146,1.5874999 Z m 5.0271608,0 c -2.7321261,0 -4.9487289,2.1720227 -5.0235951,4.8858259 0.030682,-0.00145 0.060904,-0.00468 0.091932,-0.00468 0.056974,-1e-6 0.1129418,0.012016 0.1696279,0.017001 0.753098,-1.6586763 2.406644,-2.7375876 4.2403354,-2.7418996 h 3.875e-4 3.1e-4 c 1.4359144,3.289e-4 2.7836959,0.6662006 3.6669853,1.7898391 0.2427083,-0.063827 0.4907233,-0.105486 0.7421773,-0.106841 h 7.75e-4 6.98e-4 c 0.365468,1.5e-6 0.71432,0.069231 1.03836,0.1899105 C 11.080591,3.3164363 9.0523747,1.5874999 6.6146607,1.5874999 Z m 2.36492,0 C 10.14642,2.1382083 11.091133,3.0829714 11.641796,4.2498438 V 1.5874999 Z M 6.0939433,4.2729431 C 4.9343653,4.2757518 3.8562939,4.7608675 3.0906123,5.5720368 2.8121768,5.8670138 2.5750582,6.2050953 2.390345,6.5787972 2.3441674,6.6722212 2.3012526,6.7678697 2.2617999,6.8656272 L 2.1794793,7.0694392 1.9640661,7.0258757 C 1.8715552,7.0071767 1.7773798,6.9977622 1.682998,6.9977637 c -0.026767,5e-7 -0.052856,0.00253 -0.079246,0.00398 -0.74868443,0.041016 -1.33855391,0.6542245 -1.33909136,1.41348 0.001212,0.187734 0.0497155,0.369194 0.12265401,0.5411295 h 1.77769505 8.8992763 1.823222 c 0.04358,-0.177856 0.07382,-0.3587105 0.07695,-0.542189 -7.89e-4,-0.9563485 -0.544227,-1.7806475 -1.338962,-2.1873599 -10e-7,-8.5e-6 0,-1.75e-5 0,-2.6e-5 -0.0016,-8.37e-4 -0.0033,-0.00154 -0.005,-0.00238 -0.07354,-0.037425 -0.149196,-0.070979 -0.226808,-0.1010015 -0.02664,-0.010367 -0.05361,-0.01999 -0.08069,-0.029456 -0.04438,-0.015397 -0.08906,-0.029845 -0.134565,-0.042737 -0.04391,-0.012569 -0.08828,-0.023975 -0.13317,-0.034133 -0.02415,-0.0054 -0.04816,-0.010948 -0.07258,-0.015632 -0.06436,-0.012519 -0.129632,-0.022449 -0.195724,-0.029818 -0.0163,-0.00179 -0.0327,-0.00303 -0.04909,-0.0045 -0.07341,-0.00669 -0.147472,-0.011238 -0.2227,-0.011265 -0.258355,0.00145 -0.5149161,0.043626 -0.7601601,0.124902 L 9.5612246,6.1416923 9.4475626,5.9848543 C 9.1066961,5.5145068 8.6763697,5.1281418 8.1889312,4.8422624 c -6.5e-6,-3.8e-6 -1.9e-5,3.8e-6 -2.55e-5,0 -0.139264,-0.081676 -0.283173,-0.1551763 -0.4310075,-0.2200641 -7e-6,-3.2e-6 -1.85e-5,3.2e-6 -2.6e-5,0 -0.073914,-0.032442 -0.1488125,-0.062746 -0.2245855,-0.090847 -7.5e-6,-2.8e-6 -1.8e-5,2.9e-6 -2.6e-5,0 -0.075773,-0.0281 -0.152412,-0.054006 -0.2298565,-0.07767 -8e-6,-2.5e-6 -1.8e-5,2.4e-6 -2.6e-5,0 -0.077445,-0.023663 -0.155684,-0.045078 -0.234611,-0.064208 -8e-6,-2e-6 -1.75e-5,2e-6 -2.6e-5,0 -0.078927,-0.019129 -0.1585495,-0.035988 -0.238771,-0.050488 -8e-6,-1.5e-6 -1.75e-5,1.5e-6 -2.55e-5,0 -0.080222,-0.014499 -0.1610355,-0.026658 -0.2423625,-0.036432 -8.5e-6,-10e-7 -1.75e-5,1.1e-6 -2.6e-5,0 -0.081327,-0.00977 -0.1631674,-0.017166 -0.2454114,-0.022118 -8.5e-6,-5e-7 -1.7e-5,5e-7 -2.55e-5,0 -0.082244,-0.00495 -0.1648935,-0.00746 -0.247866,-0.00749 h -2.6e-5 z M 1.5874999,9.4855446 V 11.641796 H 4.2498438 C 3.2569888,11.173254 2.4259654,10.418745 1.8606357,9.4855446 Z m 0.8995317,0 c 0.9076349,1.3035464 2.4163335,2.1562514 4.1276291,2.1562514 1.711296,0 3.2200019,-0.852703 4.1276293,-2.1562514 z m 8.8815764,0 C 10.803295,10.418742 9.9722886,11.173256 8.9794517,11.641796 H 11.641796 V 9.4855446 Z" />
    </g>
  </g>
  <g
     inkscape:label="Cloud"
     inkscape:groupmode="layer"
     id="layer1"
     style="display:none">
    <path
       id="path1"
       style="display:none;fill:#000000;stroke:none;stroke-width:0.00696855"
       inkscape:label="Balls_original"
       d="M 20.104716,-14.552083 A 14.542957,14.542999 0 0 0 6.6528238,-5.4518375 5.5527658,5.5527814 0 0 0 5.5526327,-5.5619086 5.5527658,5.5527814 0 0 0 0,-0.00926042 5.5527658,5.5527814 0 0 0 5.5526327,5.5433878 5.5527658,5.5527814 0 0 0 6.6528238,5.4333167 14.542957,14.542999 0 0 0 20.104716,14.533562 14.542957,14.542999 0 0 0 31.845602,8.512724 8.9901924,8.9902177 0 0 0 34.6568,8.9809138 8.9901924,8.9902177 0 0 0 43.646949,-0.00926042 8.9901924,8.9902177 0 0 0 34.6568,-8.9994346 8.9901924,8.9902177 0 0 0 31.877124,-8.5431304 14.542957,14.542999 0 0 0 20.104716,-14.552083 Z"
       sodipodi:insensitive="true" />
    <rect
       style="display:none;fill:#000000;stroke:none;stroke-width:0.0499999"
       id="rect1"
       width="52.916668"
       height="18.520834"
       x="-5.2916665"
       y="0"
       inkscape:label="rect_original"
       sodipodi:insensitive="true" />
  </g>
</svg>
